<svg width="316.000000" height="79.422424" viewBox="0 0 316 79.4224" fill="none" xmlns="http://www.w3.org/2000/svg" xmlns:xlink="http://www.w3.org/1999/xlink">
	<desc>
			Created with Pixso.
	</desc>
	<defs/>
	<g style="mix-blend-mode:normal">
		<path id="Path 8" d="M316 39.3C316 58.04 303.37 66.2 291.46 66.2C278.2 66.2 267.85 56.15 267.85 40.14C267.85 23.19 278.64 13.25 292.28 13.25C306.43 13.25 316 23.82 316 39.3ZM281.45 40.06C281.45 48.39 285.94 54.69 292.27 54.69C298.46 54.69 303.09 48.47 303.09 39.9C303.09 33.45 300.08 25.27 292.42 25.27C284.77 25.27 281.45 32.82 281.45 40.06Z" fill="#1C5A7D" fill-opacity="1.000000" fill-rule="nonzero"/>
		<path id="Path 8" d="M291.46 66.2C278.2 66.2 267.85 56.15 267.85 40.14C267.85 23.19 278.64 13.25 292.28 13.25C306.43 13.25 316 23.82 316 39.3C316 58.04 303.37 66.2 291.46 66.2ZM292.27 54.69C298.46 54.69 303.09 48.47 303.09 39.9C303.09 33.45 300.08 25.27 292.42 25.27C284.77 25.27 281.45 32.82 281.45 40.06C281.45 48.39 285.94 54.69 292.27 54.69Z" stroke="#707070" stroke-opacity="0" stroke-width="1.000000"/>
	</g>
	<g style="mix-blend-mode:normal">
		<path id="Path 16" d="M229.11 13.25L246.85 44.33L248.35 13.25L261.71 13.25L258.95 62.77C258.95 62.77 258.25 65.49 255.37 66.2L245.41 66.2L227.96 35.23L226.58 66.2L212.99 66.2L216.1 17.5C216.1 17.5 216.56 13.25 220.7 13.25L229.11 13.25Z" fill="#1C5A7D" fill-opacity="1.000000" fill-rule="nonzero"/>
		<path id="Path 16" d="M246.85 44.33L248.35 13.25L261.71 13.25L258.95 62.77C258.95 62.77 258.25 65.49 255.37 66.2L245.41 66.2L227.96 35.23L226.58 66.2L212.99 66.2L216.1 17.5C216.1 17.5 216.56 13.25 220.7 13.25L229.11 13.25L246.85 44.33Z" stroke="#707070" stroke-opacity="0" stroke-width="1.000000"/>
	</g>
	<g style="mix-blend-mode:normal">
		<path id="Path 15" d="M198.32 13.23C198.32 13.23 194.81 14.36 194.55 17.78L191.21 66.18L201.89 66.18C201.89 66.18 205.81 66.06 206.04 61.69L208.69 13.23L198.32 13.23Z" fill="#1C5A7D" fill-opacity="1.000000" fill-rule="nonzero"/>
		<path id="Path 15" d="M194.55 17.78L191.21 66.18L201.89 66.18C201.89 66.18 205.81 66.06 206.04 61.69L208.69 13.23L198.32 13.23C198.32 13.23 194.81 14.36 194.55 17.78Z" stroke="#707070" stroke-opacity="0" stroke-width="1.000000"/>
	</g>
	<g style="mix-blend-mode:normal">
		<path id="Path 14" d="M184.21 25.05L185.06 13.25L148.89 13.25C148.89 13.25 145.44 13.72 144.75 17.27L141.41 66.2L179.65 66.2C179.65 66.2 183.22 65.96 183.68 61.23L184.03 54.02L156.18 54.02L156.73 43.98L181.61 43.98L182.64 33.58L157.65 33.46L157.88 26.37C157.88 26.37 157.66 24.67 159.3 24.71L184.21 25.05Z" fill="#1C5A7D" fill-opacity="1.000000" fill-rule="nonzero"/>
		<path id="Path 14" d="M185.06 13.25L148.89 13.25C148.89 13.25 145.44 13.72 144.75 17.27L141.41 66.2L179.65 66.2C179.65 66.2 183.22 65.96 183.68 61.23L184.03 54.02L156.18 54.02L156.73 43.98L181.61 43.98L182.64 33.58L157.65 33.46L157.88 26.37C157.88 26.37 157.66 24.67 159.3 24.71L184.21 25.05L185.06 13.25Z" stroke="#707070" stroke-opacity="0" stroke-width="1.000000"/>
	</g>
	<g style="mix-blend-mode:normal">
		<path id="Path 13" d="M120.43 44.1C120.43 44.1 131.84 42.53 133.23 32.96C133.23 32.96 135.17 22.05 126.6 15.67C124.31 13.97 120.61 13.25 117.78 13.25L95.67 13.25C95.67 13.25 91.35 13.19 90.83 16.82L87.03 66.2L101.37 66.2L102.41 44.39L105.69 44.39C105.69 44.39 110.53 42.62 118.82 66.2L134.02 66.2C134.02 66.2 127.11 49.12 120.43 44.1ZM114.43 34.78L103.87 35.08L104.2 26.49C104.2 26.49 104.35 24.14 106.79 24.12L116.12 24.1C116.12 24.1 118.21 24.23 119.39 26.61C120.16 28.17 120.25 30.03 119.55 31.63C119.03 32.79 118.03 34.01 116.06 34.55C115.53 34.7 114.98 34.77 114.43 34.78Z" fill="#1C5A7D" fill-opacity="1.000000" fill-rule="nonzero"/>
		<path id="Path 13" d="M133.23 32.96C133.23 32.96 135.17 22.05 126.6 15.67C124.31 13.97 120.61 13.25 117.78 13.25L95.67 13.25C95.67 13.25 91.35 13.19 90.83 16.82L87.03 66.2L101.37 66.2L102.41 44.39L105.69 44.39C105.69 44.39 110.53 42.62 118.82 66.2L134.02 66.2C134.02 66.2 127.11 49.12 120.43 44.1C120.43 44.1 131.84 42.53 133.23 32.96ZM103.87 35.08L104.2 26.49C104.2 26.49 104.35 24.14 106.79 24.12L116.12 24.1C116.12 24.1 118.21 24.23 119.39 26.61C120.16 28.17 120.25 30.03 119.55 31.63C119.03 32.79 118.03 34.01 116.06 34.55C115.53 34.7 114.98 34.77 114.43 34.78L103.87 35.08Z" stroke="#707070" stroke-opacity="0" stroke-width="1.000000"/>
	</g>
	<g style="mix-blend-mode:normal">
		<path id="Path 10" d="M80.68 49.46L76.88 49.46L80.19 17.37C80.7 12.49 78.9 7.64 75.32 4.41C74.54 3.71 73.66 3.03 72.67 2.39C70.19 0.81 67.31 0 64.39 0L14.33 0C14.33 0 8.6 -0.12 4.49 5.2C2.75 7.45 1.76 10.21 1.51 13.07L0 30.13L3.45 29.65L0.3 61.64C0 64.59 0.46 67.58 1.72 70.25C1.88 70.59 2.06 70.92 2.24 71.27C5.01 76.35 10.34 79.42 16.02 79.42L65.3 79.42C65.3 79.42 78.09 79.06 79.3 65.59L80.68 49.46Z" fill="#E75815" fill-opacity="1.000000" fill-rule="nonzero"/>
		<path id="Path 10" d="M76.88 49.46L80.19 17.37C80.7 12.49 78.9 7.64 75.32 4.41C74.54 3.71 73.66 3.03 72.67 2.39C70.19 0.81 67.31 0 64.39 0L14.33 0C14.33 0 8.6 -0.12 4.49 5.2C2.75 7.45 1.76 10.21 1.51 13.07L0 30.13L3.45 29.65L0.3 61.64C0 64.59 0.46 67.58 1.72 70.25C1.88 70.59 2.06 70.92 2.24 71.27C5.01 76.35 10.34 79.42 16.02 79.42L65.3 79.42C65.3 79.42 78.09 79.06 79.3 65.59L80.68 49.46L76.88 49.46Z" stroke="#707070" stroke-opacity="0" stroke-width="1.000000"/>
	</g>
	<g style="mix-blend-mode:normal">
		<path id="Path 12" d="M64.59 13.25L36.44 13.25L32.96 47.42C32.96 47.42 32.81 51.73 36.29 52.04L45.97 51.88L46.28 44.96L53.84 38.59L52 60.28C51.88 61.71 52.19 63.17 52.96 64.37C53.56 65.3 54.43 66.13 55.66 66.2L62.51 66.2C64.32 66.2 66.04 65.33 67.03 63.8C67.38 63.25 67.65 62.62 67.77 61.89L68.67 56.65L64.99 56.6L68.67 19.71C68.67 19.71 69.58 14.02 64.59 13.25ZM54.45 34.95L47.49 34.95L48.7 23.41L52.78 23.41C52.78 23.41 54.9 22.95 55.05 26.33L54.45 34.95Z" fill="#FFFFFF" fill-opacity="1.000000" fill-rule="nonzero"/>
		<path id="Path 12" d="M36.44 13.25L32.96 47.42C32.96 47.42 32.81 51.73 36.29 52.04L45.97 51.88L46.28 44.96L53.84 38.59L52 60.28C51.88 61.71 52.19 63.17 52.96 64.37C53.56 65.3 54.43 66.13 55.66 66.2L62.51 66.2C64.32 66.2 66.04 65.33 67.03 63.8C67.38 63.25 67.65 62.62 67.77 61.89L68.67 56.65L64.99 56.6L68.67 19.71C68.67 19.71 69.58 14.02 64.59 13.25L36.44 13.25ZM47.49 34.95L48.7 23.41L52.78 23.41C52.78 23.41 54.9 22.95 55.05 26.33L54.45 34.95L47.49 34.95Z" stroke="#707070" stroke-opacity="0" stroke-width="1.000000"/>
	</g>
	<g style="mix-blend-mode:normal">
		<path id="Path 11" d="M16.33 23.25L13.15 23.25L13.57 17.83C13.61 17.4 13.7 16.97 13.86 16.56C14.29 15.46 15.37 13.64 17.94 13.25L30.5 13.25L26.77 50.19C26.77 50.19 25.71 55.42 32.07 56.81L42.21 56.81L32.1 66.2L18.44 66.2C15.79 66.2 13.49 64.22 13.15 61.54C13.07 60.87 13.06 60.12 13.15 59.27L16.33 23.25Z" fill="#FFFFFF" fill-opacity="1.000000" fill-rule="nonzero"/>
		<path id="Path 11" d="M13.15 23.25L13.57 17.83C13.61 17.4 13.7 16.97 13.86 16.56C14.29 15.46 15.37 13.64 17.94 13.25L30.5 13.25L26.77 50.19C26.77 50.19 25.71 55.42 32.07 56.81L42.21 56.81L32.1 66.2L18.44 66.2C15.79 66.2 13.49 64.22 13.15 61.54C13.07 60.87 13.06 60.12 13.15 59.27L16.33 23.25L13.15 23.25Z" stroke="#707070" stroke-opacity="0" stroke-width="1.000000"/>
	</g>
</svg>
