<svg width="146" height="146" viewBox="0 0 146 146" fill="none" xmlns="http://www.w3.org/2000/svg">
<g filter="url(#filter0_d_1093_1342)">
<rect x="15" y="11" width="116" height="116" rx="20" fill="#FFF243"/>
</g>
<path d="M52.3089 76.869C52.3089 77.3805 52.2605 77.9943 52.169 78.7104C52.0828 79.4212 51.9105 80.105 51.6521 80.7565C51.399 81.4107 51.0544 81.9626 50.6182 82.4149C50.1875 82.8591 49.6114 83.0826 48.8952 83.0826C47.9476 83.0826 47.2369 82.738 46.763 82.0488C46.2892 81.3542 45.9473 80.5277 45.74 79.5719C45.5381 78.6108 45.4196 77.6309 45.3846 76.6321C45.3469 75.6359 45.3146 74.8417 45.2877 74.2522C43.4489 74.5618 41.6317 74.831 39.8387 75.0598C39.7876 75.6494 39.6799 76.379 39.5156 77.2459C39.3487 78.1155 39.0957 78.9554 38.7511 79.7658C38.4065 80.5707 37.9569 81.268 37.405 81.8549C36.8504 82.4445 36.18 82.738 35.3912 82.738C34.772 82.738 34.2928 82.5172 33.9482 82.0703C33.6036 81.618 33.3397 81.0876 33.1621 80.4765C32.9817 79.86 32.874 79.2246 32.839 78.5704C32.8013 77.9189 32.7852 77.3751 32.7852 76.9444C32.7852 75.4879 32.8982 74.0476 33.1298 72.6261C33.3586 71.2046 33.6278 69.7912 33.9374 68.3832C34.0882 67.6455 34.2874 66.7759 34.5405 65.7771C34.7989 64.781 35.1112 63.7526 35.4773 62.6973C35.8489 61.6365 36.285 60.5866 36.7804 59.5528C37.2811 58.5136 37.8519 57.5821 38.4926 56.7637C39.1387 55.9452 39.871 55.283 40.6894 54.7714C41.5079 54.2545 42.4124 53.9961 43.4032 53.9961C44.3777 53.9961 45.2231 54.2169 45.9338 54.653C46.65 55.0918 47.2799 55.6706 47.8184 56.3868C48.3568 57.0975 48.8037 57.9105 49.1645 58.8205C49.5225 59.7251 49.8214 60.6458 50.0583 61.5773C50.3006 62.5115 50.5052 63.4268 50.6721 64.3233C50.8444 65.2145 50.9952 66.0087 51.1244 66.7032C51.4528 68.3616 51.7328 70.0416 51.9643 71.743C52.1932 73.4445 52.3089 75.154 52.3089 76.869ZM44.9 67.5432C44.9 67.2363 44.8812 66.7302 44.8462 66.0248C44.8085 65.3222 44.7277 64.6195 44.5985 63.9141C44.4693 63.2115 44.2674 62.5869 43.9955 62.0404C43.7289 61.4885 43.3655 61.2112 42.9078 61.2112C42.6547 61.2112 42.4124 61.3835 42.1755 61.7281C41.944 62.0727 41.7394 62.5088 41.5617 63.0311C41.3894 63.5561 41.2306 64.1403 41.0879 64.7864C40.9425 65.4271 40.8214 66.041 40.7217 66.6279C40.6194 67.2094 40.5441 67.7371 40.4956 68.2109C40.4444 68.6847 40.4041 69.0266 40.3771 69.2339C41.9117 69.1047 43.4193 68.9108 44.9 68.6524V67.5432Z" fill="#00928A"/>
<path d="M73.1105 77.2398C73.1105 77.8805 72.8467 78.4836 72.3244 79.049C71.7994 79.6089 71.121 80.1205 70.2891 80.5781C69.4626 81.0385 68.5365 81.445 67.5108 81.795C66.4904 82.1396 65.4808 82.4304 64.4847 82.6673C63.4859 82.9096 62.5464 83.098 61.6633 83.2272C60.7803 83.3565 60.083 83.4211 59.5742 83.4211C59.0842 83.4211 58.5646 83.3726 58.0127 83.2811C57.4662 83.1949 57.0139 82.9957 56.6558 82.6888C56.4458 82.538 56.2682 82.1934 56.1174 81.655C55.9666 81.1166 55.8186 80.4785 55.6759 79.7382C55.5305 79.0005 55.4093 78.2036 55.3097 77.3475C55.2074 76.486 55.1267 75.646 55.0621 74.8276C54.9974 74.0092 54.9436 73.2554 54.9005 72.5662C54.8628 71.877 54.8467 71.3385 54.8467 70.9508C54.8467 70.3128 54.8628 69.5401 54.9005 68.6356C54.9436 67.7256 55.0028 66.751 55.0836 65.7172C55.1617 64.6834 55.2613 63.6281 55.3851 62.5512C55.5143 61.4743 55.6597 60.4594 55.8266 59.5036C55.9909 58.5425 56.1955 57.6783 56.4405 56.9084C56.6828 56.1411 56.9466 55.5407 57.2266 55.11C57.7139 54.4208 58.3277 54.0762 59.068 54.0762C59.5849 54.0762 60.0184 54.2485 60.3711 54.5931C60.7291 54.9377 61.0172 55.3873 61.2326 55.9392C61.4533 56.4857 61.6229 57.0995 61.7387 57.7806C61.8518 58.4564 61.9352 59.1267 61.9864 59.7944C62.0348 60.4567 62.0618 61.0705 62.0618 61.6359C62.0618 62.1958 62.0618 62.6427 62.0618 62.9712C62.0618 64.9688 62.0133 66.9449 61.9218 68.9048C61.8356 70.8593 61.7925 72.8327 61.7925 74.8276V76.3245C62.9475 75.9664 64.1994 75.6299 65.5508 75.3122C66.9077 74.9891 68.2 74.8276 69.4276 74.8276C69.8637 74.8276 70.3053 74.8545 70.7522 74.903C71.1964 74.9541 71.5921 75.0618 71.9367 75.226C72.2867 75.393 72.5721 75.6353 72.7875 75.9583C73.0028 76.2814 73.1105 76.7094 73.1105 77.2398Z" fill="#00928A"/>
<path d="M82.8361 83.814C81.2693 83.814 79.9124 83.421 78.7655 82.6402C77.616 81.8595 76.6656 80.8095 75.9118 79.4958C75.158 78.1766 74.5926 76.6474 74.2211 74.9083C73.8469 73.1718 73.6611 71.3438 73.6611 69.427C73.6611 67.634 73.8577 65.8167 74.2534 63.978C74.6546 62.1338 75.2657 60.4727 76.0841 58.992C76.9025 57.5059 77.9363 56.2891 79.1855 55.3414C80.4401 54.3937 81.9369 53.9199 83.6761 53.9199C85.3614 53.9199 86.7721 54.3776 87.9082 55.2876C89.0497 56.1921 89.957 57.3713 90.6327 58.8197C91.3138 60.2627 91.8011 61.8834 92.0973 63.6764C92.3907 65.464 92.5388 67.2517 92.5388 69.0393C92.5388 71.0369 92.3396 72.9241 91.9465 74.7037C91.5508 76.4778 90.9477 78.042 90.1374 79.3988C89.3324 80.7557 88.3228 81.8299 87.1113 82.6187C85.8972 83.4156 84.473 83.814 82.8361 83.814ZM83.2884 62.4057C82.8065 62.4057 82.3946 62.5996 82.05 62.9872C81.7054 63.3695 81.4146 63.8703 81.1777 64.4949C80.9462 65.1194 80.782 65.8248 80.6824 66.6055C80.5801 67.3809 80.5316 68.167 80.5316 68.9639C80.5316 69.8631 80.5881 70.7596 80.7039 71.6561C80.817 72.5472 80.9893 73.3522 81.2208 74.0683C81.4496 74.779 81.7377 75.3552 82.0823 75.7913C82.4269 76.2301 82.8415 76.4482 83.3315 76.4482C83.8915 76.4482 84.3357 76.1682 84.6668 75.6082C85.0033 75.0429 85.2645 74.3644 85.4529 73.5729C85.6468 72.776 85.776 71.9576 85.8406 71.1177C85.9052 70.2723 85.9375 69.5643 85.9375 68.9962C85.9375 68.307 85.8891 67.5801 85.7975 66.8101C85.7114 66.0429 85.5633 65.3348 85.356 64.6887C85.1541 64.0372 84.8876 63.4934 84.5591 63.0626C84.228 62.6265 83.8053 62.4057 83.2884 62.4057Z" fill="#00928A"/>
<path d="M103.511 83.814C101.944 83.814 100.587 83.421 99.4403 82.6402C98.2908 81.8595 97.3404 80.8096 96.5866 79.4958C95.8328 78.1766 95.2674 76.6474 94.8959 74.9083C94.5217 73.1718 94.3359 71.3438 94.3359 69.427C94.3359 67.634 94.5325 65.8167 94.9282 63.978C95.3294 62.1338 95.9405 60.4727 96.7589 58.992C97.5773 57.5059 98.6111 56.2891 99.8603 55.3414C101.115 54.3937 102.612 53.9199 104.351 53.9199C106.036 53.9199 107.447 54.3776 108.583 55.2876C109.725 56.1921 110.632 57.3713 111.308 58.8197C111.989 60.2627 112.476 61.8834 112.772 63.6764C113.066 65.464 113.214 67.2517 113.214 69.0393C113.214 71.0369 113.014 72.9241 112.621 74.7037C112.226 76.4778 111.623 78.042 110.812 79.3988C110.007 80.7557 108.998 81.8299 107.786 82.6187C106.572 83.4156 105.148 83.814 103.511 83.814ZM103.963 62.4057C103.481 62.4057 103.069 62.5996 102.725 62.9872C102.38 63.3695 102.089 63.8703 101.853 64.4949C101.621 65.1194 101.457 65.8248 101.357 66.6055C101.255 67.3809 101.206 68.167 101.206 68.9639C101.206 69.8631 101.263 70.7596 101.379 71.6561C101.492 72.5472 101.664 73.3522 101.896 74.0683C102.124 74.779 102.413 75.3552 102.757 75.7913C103.102 76.2301 103.516 76.4482 104.006 76.4482C104.566 76.4482 105.01 76.1682 105.342 75.6082C105.678 75.0429 105.939 74.3644 106.128 73.5729C106.322 72.776 106.451 71.9576 106.515 71.1177C106.58 70.2723 106.612 69.5643 106.612 68.9962C106.612 68.307 106.564 67.5801 106.472 66.8101C106.386 66.0429 106.238 65.3348 106.031 64.6887C105.829 64.0372 105.562 63.4934 105.234 63.0626C104.903 62.6265 104.48 62.4057 103.963 62.4057Z" fill="#00928A"/>
<defs>
<filter id="filter0_d_1093_1342" x="0" y="0" width="146" height="146" filterUnits="userSpaceOnUse" color-interpolation-filters="sRGB">
<feFlood flood-opacity="0" result="BackgroundImageFix"/>
<feColorMatrix in="SourceAlpha" type="matrix" values="0 0 0 0 0 0 0 0 0 0 0 0 0 0 0 0 0 0 127 0" result="hardAlpha"/>
<feOffset dy="4"/>
<feGaussianBlur stdDeviation="7.5"/>
<feComposite in2="hardAlpha" operator="out"/>
<feColorMatrix type="matrix" values="0 0 0 0 0 0 0 0 0 0 0 0 0 0 0 0 0 0 0.15 0"/>
<feBlend mode="normal" in2="BackgroundImageFix" result="effect1_dropShadow_1093_1342"/>
<feBlend mode="normal" in="SourceGraphic" in2="effect1_dropShadow_1093_1342" result="shape"/>
</filter>
</defs>
</svg>
