<?xml version="1.0" encoding="utf-8"?>
<!-- Generator: Adobe Illustrator 22.0.1, SVG Export Plug-In . SVG Version: 6.00 Build 0)  -->
<svg version="1.1" id="bc-logo" xmlns="http://www.w3.org/2000/svg" xmlns:xlink="http://www.w3.org/1999/xlink" x="0px" y="0px"
	 viewBox="0 0 523.8 401.2" style="enable-background:new 0 0 523.8 401.2;" xml:space="preserve">
<style type="text/css">
	.st0{fill:#414141;}
	.st1{fill:#FFFFFF;}
</style>
<rect class="st0" width="523.8" height="401.2"/>
<g id="BC-1" transform="translate(-262.998 -163.492)">
	<path class="st1" d="M490.3,397.4c-0.1,0-0.1,0-0.2,0c-2.2-0.7-4.4-1.6-6.4-2.8c-2.3-1.2-4.6-2.6-7.2-4.1l0,0l-0.6-0.4
		c-0.4-0.3-0.9-0.5-1.3-0.8c-2.9-1.7-6-3.5-9.2-5.3c-3.9-2-7.9-3.8-12-5.2c-2.2-0.7-4.4-1.3-6.6-1.8c-2.3-0.5-4.7-0.8-7.1-0.9v-74.8
		c0-1.4,1.2-2.6,2.6-2.6c0,0,0,0,0.1,0c0,0,0,0,0.1,0c0.3,0,0.6,0.1,0.9,0.2l37.9,14.9c2.9,1.2,5.4,3.2,7.2,5.8
		c1.8,2.6,2.7,5.7,2.7,8.9v47.7c-1.9,0.1-3.7,0.3-5.6,0.6c-0.7,0.1-1.4,0.2-2.1,0.4c-1.4,0.3-2.9,0.7-4.6,1.2
		c-0.3,0.1-0.5,0.1-0.8,0.2l0,0l-0.1,0c-0.1,0-0.2,0.1-0.3,0.1c-0.5,0.2-1,0.3-1.5,0.5l-0.1,0l0,0h0c-0.1,0.1-0.3,0.1-0.4,0.2
		c-0.3,0.1-0.6,0.2-0.9,0.4c-0.4,0.1-0.7,0.3-1,0.4c-0.1,0-0.1,0-0.2,0.1l0,0c-0.1,0-0.1,0.1-0.2,0.1c-0.7,0.2-1.3,0.5-1.9,0.8l0,0
		l0,0c0,0,0,0-0.1,0h0c0,0,0,0-0.1,0l4.9,2.8c2.4-0.9,4.8-1.6,7.2-2.2c2.6-0.6,5.2-1,7.8-1.2v16C491.1,397,490.8,397.4,490.3,397.4
		C490.3,397.4,490.3,397.4,490.3,397.4z M463.3,347.4v30.7c1.1,0.4,2.7,1.1,4.4,1.9v-32.4c2.5,3,4.6,6.3,6.2,9.9c0,0,0,0,0,0.1
		c1.1-0.5,1.9-1.3,2.3-2.4c0.4-1.1,0.3-2.4-0.3-3.4c-1.7-3.1-3.9-6-6.4-8.6c1.5,0.5,3,1.2,4.5,1.9c1.3,0.6,2.5,1.4,3.7,2.1
		c1.2,0.8,2.3,1.6,3.4,2.5c0.8-0.9,1.1-2.1,0.9-3.3c-0.1-0.6-0.3-1.1-0.6-1.6c-0.3-0.5-0.7-0.9-1.2-1.2c-2.9-2-6.1-3.6-9.5-4.7
		c2.2-0.7,4.5-1.2,6.8-1.4c1.6-0.2,3.1-0.3,4.7-0.3c0.3,0,0.6,0,0.9,0h0h0c0.1-1.1-0.4-2.3-1.1-3.1c-0.4-0.4-0.8-0.7-1.3-0.9
		c-0.5-0.2-1-0.3-1.6-0.3c-0.1,0-0.2,0-0.3,0c-3.6,0.3-7.1,1-10.4,2.2c1.3-1.9,2.8-3.6,4.5-5.2c0.6-0.6,1.5-1.5,2.6-2.3
		c0,0,0.1,0,0.1,0c-0.4-0.5-0.9-0.9-1.4-1.2c-0.6-0.3-1.2-0.4-1.8-0.4c-1.1,0-2.1,0.4-2.9,1.2c-1.4,1.4-2.7,2.9-3.9,4.5
		c-1.2-1.6-2.5-3.1-3.9-4.5c-0.7-0.8-1.8-1.2-2.8-1.2c-1.3,0-2.5,0.6-3.2,1.6c0.8,0.7,1.7,1.4,2.4,2.2c1.8,1.7,3.4,3.6,4.9,5.6
		c-1.9-0.7-3.8-1.2-5.7-1.6c-1.6-0.3-3.3-0.5-5-0.7c-0.1,0-0.2,0-0.3,0c-0.6,0-1.1,0.1-1.6,0.3c-1.6,0.7-2.6,2.3-2.5,4h0
		c0,0,0,0,0,0h0c0.1,0,0.4,0,0.9,0c1.6,0,3.1,0.1,4.7,0.3c2.3,0.2,4.6,0.7,6.8,1.4c-3.3,1.1-6.5,2.7-9.5,4.7
		c-1.9,1.3-2.4,3.8-1.2,5.8c0.1,0.1,0.2,0.3,0.3,0.4c1.1-0.9,2.2-1.7,3.4-2.5c2.5-1.7,5.3-3,8.2-4c-2.5,2.5-4.6,5.4-6.4,8.5
		c-0.6,1-0.7,2.2-0.4,3.3c0.4,1.1,1.2,2,2.3,2.5c0,0,0,0,0,0C458.5,353.8,460.7,350.4,463.3,347.4L463.3,347.4z"/>
	<path class="st1" d="M534.4,380.6v7.4c0,1.1-0.2,1.8-0.4,2.2c-0.4,0.4-0.9,0.5-1.4,0.5h-2.1v-8.1h-3.9v8.1h-4v-8.1h-3.9v11.8h-2.6
		c-0.5,0-1,0-1.4-0.2c-0.5-0.1-0.9-0.3-1.3-0.6c-0.4-0.3-0.7-0.7-0.9-1.1c-0.3-0.6-0.4-1.2-0.4-1.8c0-0.7,0.1-1.3,0.2-2
		c0.1-0.3,0.2-0.7,0.3-1.1c0.1-0.4,0.3-0.8,0.4-1.3l-3.4-1.3c-0.5,1-0.9,2-1.1,3c-0.2,0.9-0.3,1.8-0.4,2.7c0,1.1,0.2,2.2,0.6,3.2
		c0.4,0.9,1,1.6,1.7,2.2c0.7,0.5,1.6,0.9,2.5,1.2c0.9,0.2,1.9,0.4,2.9,0.4h6.6v-3.7h11c1.5,0,2.6-0.4,3.4-1.3
		c0.8-0.9,1.2-2.1,1.2-3.7v-8.4L534.4,380.6L534.4,380.6z"/>
	<path class="st1" d="M577.1,376.2c0-1.1,0.8-2,1.9-2c0.1,0,0.1,0,0.2,0c0.5,0,1,0.2,1.4,0.6c0.4,0.4,0.6,0.9,0.6,1.5
		c0,0.6-0.2,1.1-0.6,1.5c-0.4,0.4-0.9,0.6-1.4,0.6c-0.5,0-1.1-0.2-1.5-0.6C577.3,377.3,577.1,376.8,577.1,376.2"/>
	<path class="st1" d="M592.2,400.1c-0.7-1.2-0.5-2.6,0.4-3.6c0.6-0.6,1.5-0.9,2.3-0.8c0.3,0,0.5,0,0.8,0c0.3,0.1,0.6,0.1,0.9,0.2
		l-0.4,1.6c-0.4-0.1-0.8-0.2-1.3-0.2c-0.4,0-0.8,0.1-1.2,0.4c-0.3,0.3-0.4,0.6-0.4,1c0,0.4,0.1,0.8,0.4,1c0.4,0.3,0.8,0.4,1.3,0.4
		h1.7v1.6h-5.8v-1.6L592.2,400.1L592.2,400.1z"/>
	<rect x="606.2" y="374.2" class="st1" width="3.9" height="19.6"/>
	<rect x="542.8" y="374.2" class="st1" width="3.9" height="13"/>
	<rect x="590.8" y="374.2" class="st1" width="3.9" height="13"/>
	<path class="st1" d="M602.7,388.2c0,4.1-3.2,5.6-6.4,5.6h-6.4l-0.7-3.2h5.9c4.1,0,3.8-2.4,3.8-3.5v-12.9h3.9L602.7,388.2
		L602.7,388.2z"/>
	<path class="st1" d="M570,347.1c0.5,0,1-0.2,1.4-0.6c0.4-0.4,0.6-0.9,0.6-1.5c0-0.5-0.2-1.1-0.6-1.5c-0.4-0.4-0.9-0.6-1.4-0.6
		c-0.5,0-1.1,0.2-1.5,0.6c-0.4,0.4-0.6,0.9-0.6,1.5c0,0.5,0.2,1.1,0.6,1.5C568.9,346.9,569.4,347.1,570,347.1z"/>
	<path class="st1" d="M606.2,343v13.8c0,0.4,0,0.8-0.1,1.2c-0.1,0.3-0.2,0.6-0.4,0.8c-0.3,0.2-0.6,0.4-0.9,0.5
		c-0.5,0.1-1,0.2-1.5,0.2h-4.2c-1.8,0-3.7-1-3.7-2.7l0,0v-0.8c0-5.2-4.8-7.2-8-7.2c-2,0-4,0.4-5.9,1.2l0.8,2.9
		c1.3-0.5,2.8-0.8,4.2-0.9c4.1,0,5,2.6,5,3.7v3.7h-16.6c-0.8,0.1-1.7-0.2-2.3-0.8c-0.6-0.5-0.9-1.2-0.9-2v-6.8h-3.9v6.9
		c0,0.4,0,0.8-0.1,1.2c-0.1,0.3-0.2,0.6-0.4,0.8c-0.3,0.2-0.6,0.4-0.9,0.5c-0.5,0.1-1,0.2-1.5,0.2h-41c-0.9,0-1.6-0.7-1.6-1.6
		c0,0,0,0,0,0V350h0c-1.9-0.8-3.9-1.3-6-1.3c-3.2,0-8,2-8,7.2v6.7h8.8v-3.2h-4.9v-3.7c0-1.1,0.4-3.7,4.6-3.7c0.6,0,1.2,0.1,1.7,0.4
		v5.8c0,2.4,1.9,4.4,4.3,4.4h42.7c1.2,0,2.3-0.1,3.4-0.4c0.8-0.3,1.4-0.7,1.9-1.4c0.2,0.3,0.5,0.6,0.9,0.9c0.4,0.2,0.7,0.4,1.1,0.6
		c0.4,0.1,0.8,0.2,1.3,0.3c0.2,0,0.5,0.1,0.7,0.1c0.1,0,0.2,0,0.3,0h20.3v-1.9l0,0c0.3,0.4,0.6,0.7,1,1c0.3,0.2,0.7,0.4,1.1,0.6
		c0.4,0.1,0.8,0.2,1.1,0.3c0.2,0,0.4,0,0.6,0h4.5c1,0,2-0.1,3-0.3c0.7-0.2,1.4-0.5,1.9-1c0.5-0.4,0.8-1,1-1.6
		c0.2-0.7,0.3-1.5,0.3-2.3V343L606.2,343L606.2,343z"/>
	<path class="st1" d="M587.8,364.9c-1.1,0-2,0.8-2,1.9c0,0.1,0,0.1,0,0.2c0,0.6,0.2,1.1,0.6,1.5c0.4,0.4,0.9,0.6,1.5,0.6
		c0.5,0,1-0.2,1.4-0.6c0.4-0.4,0.6-0.9,0.6-1.5c0-0.5-0.2-1.1-0.6-1.5C588.9,365.1,588.3,364.9,587.8,364.9z"/>
	<path class="st1" d="M514.2,347.1c0.5,0,1-0.2,1.4-0.6c0.4-0.4,0.6-0.9,0.6-1.5c0-0.5-0.2-1.1-0.6-1.5c-0.4-0.4-0.9-0.6-1.4-0.6
		c-1.1,0-2,0.8-2,1.9c0,0.1,0,0.1,0,0.2c0,0.6,0.2,1.1,0.6,1.5C513.1,346.9,513.6,347.1,514.2,347.1z"/>
	<path class="st1" d="M519.2,347.1c0.5,0,1-0.2,1.4-0.6c0.4-0.4,0.6-0.9,0.6-1.5c0-0.5-0.2-1.1-0.6-1.5c-0.4-0.4-0.9-0.6-1.4-0.6
		c-1.1,0-2,0.8-2,1.9c0,0.1,0,0.1,0,0.2c0,0.6,0.2,1.1,0.6,1.5C518.1,346.9,518.6,347.1,519.2,347.1z"/>
	<path class="st1" d="M585.6,381.9L585.6,381.9c-1.9-0.9-4-1.3-6-1.3c-3.2,0-8,2-8,7.2v2.9h-14c-1.2,0-2.9-0.2-2.9-2.6v-13.9h-3.9
		v12.9c0,1.1,0.3,3.5-3.8,3.5h-5.9l0.7,3.2h6.5c1.9,0,3.8-0.6,5-1.9c0.6,0.9,1.9,1.9,4.4,1.9h27.9V381.9z M575.5,390.6v-3
		c0-1.1,0.4-3.7,4.6-3.7c0.6,0,1.2,0.1,1.7,0.4v6.4L575.5,390.6L575.5,390.6z"/>
	<path class="st1" d="M439.7,417.5h3.9c0.4,0,0.8,0,1.1,0.1c0.3,0.1,0.6,0.2,0.9,0.4c0.2,0.2,0.5,0.5,0.6,0.7
		c0.1,0.3,0.2,0.7,0.2,1.1c0,0.5-0.1,1-0.4,1.4c-0.3,0.3-0.7,0.6-1.1,0.7v0c0.2,0.1,0.4,0.2,0.6,0.3c0.2,0.1,0.4,0.3,0.5,0.4
		c0.2,0.2,0.3,0.4,0.4,0.6c0.1,0.3,0.1,0.6,0.1,0.9c0,0.3,0,0.7-0.2,1c-0.1,0.3-0.3,0.6-0.5,0.8c-0.3,0.3-0.6,0.5-0.9,0.6
		c-0.4,0.1-0.9,0.2-1.3,0.2h-3.9V417.5z M441.6,421.3h1.3c0.4,0,0.8-0.1,1.2-0.3c0.3-0.2,0.4-0.5,0.4-0.9c0-0.2,0-0.4-0.1-0.6
		c-0.1-0.1-0.2-0.2-0.3-0.3c-0.2-0.1-0.3-0.1-0.5-0.2c-0.2,0-0.4,0-0.5,0h-1.4L441.6,421.3L441.6,421.3z M441.6,425.3h1.5
		c0.2,0,0.4,0,0.6,0c0.2,0,0.4-0.1,0.5-0.2c0.1-0.1,0.3-0.2,0.3-0.4c0.1-0.2,0.1-0.4,0.1-0.6c0-0.2,0-0.4-0.2-0.6
		c-0.1-0.2-0.2-0.3-0.4-0.4c-0.2-0.1-0.4-0.2-0.6-0.2c-0.2,0-0.5,0-0.7,0h-1.3V425.3z"/>
	<path class="st1" d="M453,422.3c0-0.3-0.1-0.6-0.4-0.9c-0.3-0.2-0.7-0.3-1.1-0.3c-0.3,0-0.5,0-0.8,0.1c-0.3,0-0.6,0.1-0.9,0.2
		l-0.3-1.3c0.3-0.1,0.7-0.2,1.1-0.3c0.4-0.1,0.8-0.1,1.1-0.1c1.1,0,1.9,0.2,2.5,0.7c0.5,0.5,0.8,1.2,0.8,1.9v2.8c0,0.3,0,0.5,0,0.8
		c0,0.2,0,0.5,0.1,0.7h-1.6c-0.1-0.1-0.1-0.3-0.1-0.4c0-0.1,0-0.3,0-0.4h0c-0.2,0.3-0.5,0.6-0.8,0.7c-0.4,0.2-0.8,0.3-1.2,0.3
		c-0.3,0-0.6,0-0.9-0.1c-0.3-0.1-0.6-0.2-0.8-0.4c-0.2-0.2-0.4-0.4-0.6-0.6c-0.1-0.3-0.2-0.7-0.2-1c0-0.4,0.1-0.9,0.3-1.2
		c0.2-0.3,0.6-0.6,0.9-0.7c0.4-0.2,0.9-0.3,1.4-0.3c0.5,0,1.1-0.1,1.6-0.1V422.3z M452.8,423.6c-0.3,0-0.6,0-0.9,0
		c-0.2,0-0.5,0.1-0.7,0.2c-0.2,0.1-0.4,0.2-0.5,0.4c-0.1,0.2-0.2,0.4-0.2,0.6c0,0.3,0.1,0.5,0.3,0.7c0.2,0.2,0.5,0.3,0.7,0.2
		c0.2,0,0.5,0,0.7-0.1c0.2-0.1,0.4-0.2,0.5-0.4c0.1-0.2,0.2-0.3,0.3-0.5c0-0.2,0.1-0.4,0.1-0.6v-0.5H452.8L452.8,423.6z"/>
	<path class="st1" d="M459.5,419.9v0.9h0c0.2-0.4,0.5-0.6,0.9-0.8c0.4-0.2,0.8-0.3,1.2-0.3c0.4,0,0.7,0,1.1,0.2
		c0.3,0.1,0.6,0.3,0.8,0.5c0.2,0.2,0.4,0.5,0.5,0.8c0.1,0.3,0.2,0.7,0.2,1v4.5h-1.8v-3.9c0-0.3,0-0.5,0-0.8c0-0.2-0.1-0.4-0.2-0.6
		c-0.1-0.2-0.2-0.3-0.4-0.3c-0.2-0.1-0.4-0.1-0.6-0.1c-0.2,0-0.4,0-0.5,0.1c-0.2,0.1-0.3,0.2-0.5,0.3c-0.2,0.2-0.3,0.4-0.4,0.6
		c-0.1,0.3-0.1,0.6-0.1,0.9v3.7h-1.8v-6.9L459.5,419.9L459.5,419.9z"/>
	<path class="st1" d="M473.2,419.9l-2.5,3.1l2.7,3.8h-2.2l-2.4-3.6h0v3.6h-1.8v-9.6h1.8v5.7h0l2.2-3L473.2,419.9z"/>
	<path class="st1" d="M479.3,421.2c-0.1,0-0.2,0-0.2,0h-0.3c-0.2,0-0.4,0-0.6,0.1c-0.2,0.1-0.4,0.2-0.5,0.4
		c-0.2,0.2-0.3,0.5-0.4,0.7c-0.1,0.4-0.1,0.7-0.1,1.1v3.3h-1.8v-6.9h1.8v0.9h0c0.3-0.7,1-1.1,1.8-1.1h0.2c0.1,0,0.2,0,0.2,0
		L479.3,421.2z"/>
	<path class="st1" d="M486,426.8v-0.9h0c-0.2,0.4-0.5,0.6-0.8,0.8c-0.4,0.2-0.8,0.3-1.2,0.3c-0.4,0-0.7,0-1.1-0.2
		c-0.3-0.1-0.6-0.3-0.8-0.5c-0.2-0.2-0.4-0.5-0.5-0.8c-0.1-0.3-0.2-0.7-0.2-1v-4.5h1.8v3.9c0,0.2,0,0.5,0,0.7c0,0.2,0.1,0.4,0.2,0.6
		c0.1,0.2,0.2,0.3,0.4,0.4c0.2,0.1,0.4,0.1,0.6,0.1c0.2,0,0.4,0,0.5-0.1c0.2-0.1,0.3-0.2,0.4-0.3c0.2-0.2,0.3-0.4,0.3-0.6
		c0.1-0.3,0.1-0.6,0.1-0.9v-3.7h1.8v6.9H486z"/>
	<path class="st1" d="M492.4,429.3h-1.8v-9.4h1.8v0.9h0c0.2-0.3,0.6-0.6,0.9-0.8c0.4-0.2,0.7-0.2,1.1-0.2c0.4,0,0.8,0.1,1.2,0.3
		c0.4,0.2,0.7,0.5,0.9,0.8c0.2,0.3,0.4,0.7,0.5,1.1c0.1,0.5,0.2,0.9,0.2,1.4c0,0.5-0.1,1-0.2,1.4c-0.1,0.4-0.3,0.8-0.6,1.1
		c-0.3,0.3-0.6,0.6-0.9,0.8c-0.4,0.2-0.8,0.3-1.2,0.3c-0.4,0-0.7-0.1-1.1-0.2c-0.4-0.1-0.7-0.4-0.9-0.7h0L492.4,429.3L492.4,429.3z
		 M495.6,423.4c0-0.3,0-0.6-0.1-0.9c0-0.2-0.1-0.5-0.3-0.7c-0.1-0.2-0.3-0.4-0.5-0.4c-0.2-0.1-0.4-0.2-0.7-0.2
		c-0.3,0-0.5,0.1-0.7,0.2c-0.2,0.1-0.4,0.3-0.5,0.4c-0.1,0.2-0.3,0.4-0.3,0.7c-0.2,0.6-0.2,1.2,0,1.8c0.1,0.2,0.2,0.5,0.3,0.7
		c0.1,0.2,0.3,0.3,0.5,0.4c0.2,0.1,0.5,0.2,0.7,0.2c0.2,0,0.5,0,0.7-0.2c0.2-0.1,0.4-0.3,0.5-0.5c0.1-0.2,0.2-0.5,0.3-0.7
		C495.5,423.9,495.5,423.6,495.6,423.4"/>
	<path class="st1" d="M499,419.9h1.1v-1.8h1.8v1.8h1.4v1.4h-1.4v3.1c0,0.2,0,0.4,0,0.6c0,0.2,0,0.2,0.1,0.3c0.1,0.1,0.1,0.1,0.2,0.2
		c0.1,0,0.3,0.1,0.4,0h0.3c0.1,0,0.2,0,0.3,0v1.4c-0.2,0-0.4,0-0.6,0h-0.6c-0.4,0-0.7,0-1.1-0.1c-0.2-0.1-0.4-0.2-0.6-0.4
		c-0.2-0.2-0.3-0.4-0.3-0.6c-0.1-0.3-0.1-0.6-0.1-0.9v-3.6H499V419.9z"/>
	<path class="st1" d="M510,421.3c-0.2-0.1-0.3-0.1-0.5-0.2c-0.2,0-0.4,0-0.6,0c-0.3,0-0.6,0-0.9,0.2c-0.2,0.1-0.4,0.3-0.6,0.5
		c-0.2,0.2-0.3,0.4-0.4,0.7c-0.1,0.3-0.1,0.6-0.1,0.9c0,0.3,0,0.6,0.1,0.9c0.1,0.3,0.2,0.5,0.4,0.7c0.2,0.2,0.4,0.4,0.6,0.5
		c0.3,0.1,0.6,0.2,0.9,0.2c0.2,0,0.4,0,0.6,0c0.2,0,0.4-0.1,0.6-0.2l0.3,1.3c-0.3,0.1-0.5,0.2-0.8,0.2c-0.3,0-0.5,0-0.8,0
		c-0.6,0-1.1-0.1-1.6-0.3c-0.4-0.2-0.8-0.4-1.1-0.7c-0.3-0.3-0.5-0.7-0.7-1.1c-0.2-0.5-0.2-0.9-0.2-1.4c0-0.5,0.1-1,0.2-1.5
		c0.3-0.9,1-1.5,1.9-1.9c0.5-0.2,1-0.3,1.5-0.3c0.5,0,1,0.1,1.5,0.2L510,421.3z"/>
	<path class="st1" d="M515.4,424.5L515.4,424.5l1.7-4.6h1.9l-3.7,9.4h-1.9l1.1-2.7l-2.7-6.7h1.9L515.4,424.5z"/>
	<path class="st1" d="M531.6,419.2c-0.2-0.1-0.5-0.2-0.8-0.2c-0.3,0-0.6-0.1-0.9-0.1c-0.5,0-0.9,0.1-1.3,0.3
		c-0.4,0.2-0.7,0.4-0.9,0.7c-0.2,0.3-0.4,0.7-0.5,1.1c-0.1,0.4-0.2,0.9-0.2,1.3c0,0.4,0.1,0.8,0.2,1.2c0.1,0.4,0.3,0.7,0.6,1.1
		c0.3,0.3,0.6,0.5,0.9,0.7c0.4,0.2,0.8,0.3,1.3,0.3c0.3,0,0.6,0,0.9-0.1c0.3-0.1,0.6-0.2,0.8-0.2l0.3,1.5c-0.4,0.1-0.7,0.2-1.1,0.3
		c-0.4,0.1-0.8,0.1-1.2,0.1c-0.7,0-1.3-0.1-1.9-0.4c-0.5-0.2-1-0.6-1.5-1c-0.4-0.4-0.7-0.9-0.9-1.5c-0.2-0.6-0.3-1.3-0.3-1.9
		c0-0.7,0.1-1.3,0.3-1.9c0.2-0.6,0.5-1.1,0.9-1.5c0.4-0.4,0.9-0.8,1.5-1c0.6-0.3,1.3-0.4,1.9-0.4c0.4,0,0.8,0,1.2,0.1
		c0.3,0.1,0.7,0.2,1,0.3L531.6,419.2z"/>
	<path class="st1" d="M540.8,423.3c0,0.5-0.1,1-0.2,1.5c-0.2,0.4-0.4,0.8-0.7,1.1c-0.3,0.3-0.7,0.6-1.1,0.7c-0.9,0.3-1.9,0.3-2.8,0
		c-0.4-0.2-0.8-0.4-1.1-0.7c-0.3-0.3-0.5-0.7-0.7-1.1c-0.3-1-0.3-2,0-3c0.2-0.4,0.4-0.8,0.7-1.1c0.3-0.3,0.7-0.6,1.1-0.7
		c1.3-0.5,2.9-0.3,3.9,0.7c0.3,0.3,0.5,0.7,0.7,1.1C540.7,422.3,540.8,422.8,540.8,423.3 M538.9,423.3c0-0.3,0-0.6-0.1-0.9
		c-0.1-0.2-0.2-0.5-0.3-0.7c-0.1-0.2-0.3-0.4-0.5-0.4c-0.7-0.3-1.5-0.1-1.9,0.4c-0.5,1-0.5,2.2,0,3.2c0.3,0.4,0.7,0.6,1.2,0.6
		c0.5,0,1-0.2,1.2-0.6C538.8,424.5,539,423.9,538.9,423.3"/>
	<path class="st1" d="M545.1,419.9v0.9h0c0.2-0.3,0.4-0.6,0.8-0.8c0.4-0.2,0.8-0.3,1.2-0.3c0.4,0,0.9,0.1,1.3,0.3
		c0.3,0.2,0.6,0.5,0.8,0.9h0c0.2-0.4,0.5-0.7,0.9-0.9c0.7-0.3,1.6-0.4,2.4-0.1c0.3,0.1,0.5,0.3,0.8,0.5c0.2,0.2,0.4,0.5,0.4,0.8
		c0.1,0.3,0.2,0.7,0.2,1.1v4.5h-1.8v-3.9c0-0.3,0-0.5,0-0.8c0-0.2-0.1-0.4-0.2-0.6c-0.1-0.2-0.2-0.3-0.4-0.4
		c-0.2-0.1-0.4-0.1-0.6-0.1c-0.2,0-0.3,0-0.5,0.1c-0.2,0-0.3,0.1-0.4,0.2c-0.1,0.1-0.2,0.3-0.3,0.4c-0.1,0.2-0.1,0.5-0.1,0.7v4.2
		h-1.8v-3.9c0-0.2,0-0.5,0-0.7c0-0.2-0.1-0.4-0.2-0.6c-0.1-0.2-0.2-0.3-0.4-0.4c-0.2-0.1-0.4-0.1-0.6-0.1c-0.2,0-0.3,0-0.5,0.1
		c-0.2,0.1-0.3,0.2-0.4,0.3c-0.1,0.2-0.2,0.4-0.3,0.6c-0.1,0.3-0.1,0.6-0.1,0.9v3.8h-1.8v-6.9L545.1,419.9L545.1,419.9z"/>
	<path class="st1" d="M558.3,419.9v0.9h0c0.2-0.3,0.4-0.6,0.8-0.8c0.4-0.2,0.8-0.3,1.2-0.3c0.4,0,0.9,0.1,1.3,0.3
		c0.3,0.2,0.6,0.5,0.8,0.9h0c0.2-0.4,0.5-0.7,0.9-0.9c0.7-0.3,1.6-0.4,2.4-0.1c0.3,0.1,0.5,0.3,0.8,0.5c0.2,0.2,0.4,0.5,0.4,0.8
		c0.1,0.3,0.2,0.7,0.2,1.1v4.5h-1.9v-3.9c0-0.3,0-0.5,0-0.8c0-0.2-0.1-0.4-0.2-0.6c-0.1-0.2-0.2-0.3-0.4-0.4
		c-0.2-0.1-0.4-0.1-0.6-0.1c-0.2,0-0.3,0-0.5,0.1c-0.2,0-0.3,0.1-0.4,0.2c-0.1,0.1-0.2,0.3-0.3,0.4c-0.1,0.2-0.1,0.5-0.1,0.7v4.2
		h-1.8v-3.9c0-0.2,0-0.5,0-0.7c0-0.2-0.1-0.4-0.2-0.6c-0.1-0.2-0.2-0.3-0.4-0.4c-0.2-0.1-0.4-0.1-0.6-0.1c-0.2,0-0.3,0-0.5,0.1
		c-0.2,0.1-0.3,0.2-0.4,0.3c-0.1,0.2-0.2,0.4-0.3,0.6c-0.1,0.3-0.1,0.6-0.1,0.9v3.8h-1.8v-6.9L558.3,419.9L558.3,419.9z"/>
	<path class="st1" d="M571.6,418.8h-1.8v-1.6h1.8V418.8z M571.6,426.8h-1.8v-6.9h1.8V426.8z"/>
	<path class="st1" d="M578.6,421.5c-0.3-0.1-0.6-0.2-1-0.3c-0.3,0-0.6-0.1-0.9-0.1c-0.2,0-0.4,0-0.6,0.1c-0.2,0.1-0.3,0.3-0.2,0.4
		c0,0.2,0.1,0.4,0.3,0.5c0.3,0.2,0.7,0.3,1,0.4c0.4,0.1,0.7,0.2,1,0.4c0.3,0.1,0.5,0.3,0.7,0.5c0.2,0.2,0.4,0.4,0.4,0.6
		c0.1,0.3,0.2,0.5,0.2,0.8c0,0.3-0.1,0.7-0.2,1c-0.2,0.3-0.4,0.5-0.6,0.6c-0.3,0.2-0.6,0.3-0.9,0.4c-0.3,0.1-0.7,0.1-1,0.1
		c-0.4,0-0.9,0-1.3-0.1c-0.4-0.1-0.8-0.2-1.2-0.4l0.4-1.4c0.4,0.2,0.8,0.3,1.2,0.4c0.3,0.1,0.7,0.1,1,0.1c0.3,0,0.6,0,0.8-0.1
		c0.2-0.1,0.3-0.3,0.3-0.5c0-0.2-0.1-0.4-0.3-0.5c-0.3-0.2-0.7-0.3-1.1-0.4c-0.6-0.2-1.1-0.5-1.6-0.9c-0.3-0.3-0.5-0.8-0.5-1.3
		c0-0.3,0.1-0.7,0.2-1c0.1-0.3,0.3-0.5,0.6-0.6c0.3-0.2,0.5-0.3,0.9-0.4c0.3-0.1,0.6-0.1,1-0.1c0.4,0,0.7,0,1.1,0.1
		c0.4,0.1,0.7,0.2,1.1,0.3L578.6,421.5z"/>
	<path class="st1" d="M585.8,421.5c-0.3-0.1-0.6-0.2-1-0.3c-0.3,0-0.6-0.1-0.9-0.1c-0.2,0-0.4,0-0.6,0.1c-0.2,0.1-0.3,0.3-0.2,0.4
		c0,0.2,0.1,0.4,0.3,0.5c0.3,0.2,0.7,0.3,1,0.4c0.4,0.1,0.7,0.2,1,0.4c0.3,0.1,0.5,0.3,0.7,0.5c0.2,0.2,0.4,0.4,0.4,0.6
		c0.1,0.3,0.2,0.5,0.2,0.8c0,0.3-0.1,0.7-0.2,1c-0.2,0.3-0.4,0.5-0.6,0.6c-0.3,0.2-0.6,0.3-0.9,0.4c-0.3,0.1-0.7,0.1-1,0.1
		c-0.4,0-0.9,0-1.3-0.1c-0.4-0.1-0.8-0.2-1.2-0.4l0.4-1.4c0.4,0.2,0.8,0.3,1.2,0.4c0.3,0.1,0.7,0.1,1,0.1c0.3,0,0.6,0,0.8-0.1
		c0.2-0.1,0.3-0.3,0.3-0.5c0-0.2-0.1-0.4-0.3-0.5c-0.3-0.2-0.7-0.3-1.1-0.4c-0.6-0.2-1.1-0.5-1.6-0.9c-0.3-0.3-0.5-0.8-0.5-1.3
		c0-0.3,0.1-0.7,0.2-1c0.1-0.3,0.4-0.5,0.6-0.6c0.3-0.2,0.5-0.3,0.9-0.4c0.3-0.1,0.6-0.1,1-0.1c0.4,0,0.7,0,1.1,0.1
		c0.4,0.1,0.7,0.2,1.1,0.3L585.8,421.5z"/>
	<path class="st1" d="M590.9,418.8H589v-1.6h1.8V418.8z M590.9,426.8H589v-6.9h1.8V426.8z"/>
	<path class="st1" d="M600.3,423.3c0,0.5-0.1,1-0.2,1.5c-0.2,0.4-0.4,0.8-0.7,1.1c-0.3,0.3-0.7,0.6-1.1,0.7c-0.9,0.3-1.9,0.3-2.8,0
		c-0.4-0.2-0.8-0.4-1.1-0.7c-0.3-0.3-0.5-0.7-0.7-1.1c-0.3-1-0.3-2,0-3c0.2-0.4,0.4-0.8,0.7-1.1c0.3-0.3,0.7-0.6,1.1-0.7
		c1.3-0.5,2.9-0.3,3.9,0.7c0.3,0.3,0.5,0.7,0.7,1.1C600.2,422.3,600.3,422.8,600.3,423.3 M598.5,423.3c0-0.3,0-0.6-0.1-0.9
		c-0.1-0.2-0.2-0.5-0.3-0.7c-0.1-0.2-0.3-0.4-0.5-0.4c-0.7-0.3-1.5-0.1-1.9,0.4c-0.5,1-0.5,2.2,0,3.2c0.3,0.4,0.7,0.6,1.2,0.6
		c0.5,0,1-0.2,1.2-0.6C598.4,424.5,598.5,423.9,598.5,423.3"/>
	<path class="st1" d="M604.6,419.9v0.9h0c0.2-0.4,0.5-0.6,0.9-0.8c0.4-0.2,0.8-0.3,1.2-0.3c0.4,0,0.7,0,1.1,0.2
		c0.3,0.1,0.6,0.3,0.8,0.5c0.2,0.2,0.4,0.5,0.5,0.8c0.1,0.3,0.2,0.7,0.2,1v4.5h-1.8v-3.9c0-0.3,0-0.5,0-0.8c0-0.2-0.1-0.4-0.2-0.6
		c-0.1-0.2-0.2-0.3-0.4-0.3c-0.2-0.1-0.4-0.1-0.6-0.1c-0.2,0-0.4,0-0.5,0.1c-0.2,0.1-0.3,0.2-0.5,0.3c-0.2,0.2-0.3,0.4-0.4,0.6
		c-0.1,0.3-0.1,0.6-0.1,0.9v3.7h-1.8v-6.9L604.6,419.9L604.6,419.9z"/>
	<path class="st1" d="M460.7,386.6c-2,1.2-4,2.4-5.8,3.4c-5.3,3.2-10.1,6-14.2,7.3c-0.4,0.1-0.8-0.1-0.9-0.5c0-0.1,0-0.1,0-0.2v-16
		C447.5,381.1,454.4,383.5,460.7,386.6"/>
</g>
</svg>
